<?xml version="1.0" encoding="utf-8"?>
<!-- Generator: Adobe Illustrator 24.1.1, SVG Export Plug-In . SVG Version: 6.00 Build 0)  -->
<svg version="1.1" id="b7798a4d-5163-44df-883c-b45df1683271"
	 xmlns="http://www.w3.org/2000/svg" xmlns:xlink="http://www.w3.org/1999/xlink" x="0px" y="0px" viewBox="0 0 747 542.3"
	 style="enable-background:new 0 0 747 542.3;" xml:space="preserve">
<style type="text/css">
	.st0{fill:none;stroke:#FFFFFF;stroke-width:3;stroke-miterlimit:10;}
	.st1{fill:#FFFFFF;stroke:#FFFFFF;stroke-width:3;stroke-miterlimit:10;}
	.st2{opacity:0.2;fill:none;stroke:#FFFFFF;stroke-width:3;stroke-miterlimit:10;enable-background:new    ;}
</style>
<polyline class="st0" points="475.6,529.8 475.6,507.8 475.6,505.8 475.6,483.8 475.6,481.8 475.6,459.8 475.6,457.8 475.6,435.8 
	475.6,433.8 475.6,412.8 "/>
<path class="st1" d="M483.6,534.8c0,2.8-2.2,5-5,5H144.1c-37.8,0-68.5-30.7-68.5-68.5s30.7-68.5,68.5-68.5h334.5c2.8,0,5,2.2,5,5
	s-2.2,5-5,5H144.1c-32.3,0-58.5,26.2-58.5,58.5s26.2,58.5,58.5,58.5h334.5C481.4,529.8,483.6,532,483.6,534.8z"/>
<path class="st0" d="M475.6,435.8h-350c-0.6,0-1-0.4-1-1s0.4-1,1-1h350c0.6,0,1,0.4,1,1S476.2,435.8,475.6,435.8z"/>
<path class="st0" d="M475.6,459.8h-350c-0.6,0-1-0.4-1-1s0.4-1,1-1h350c0.6,0,1,0.4,1,1S476.2,459.8,475.6,459.8z"/>
<path class="st0" d="M475.6,483.8h-350c-0.6,0-1-0.4-1-1s0.4-1,1-1h350c0.6,0,1,0.4,1,1S476.2,483.8,475.6,483.8z"/>
<path class="st0" d="M475.6,507.8h-350c-0.6,0-1-0.4-1-1s0.4-1,1-1h350c0.6,0,1,0.4,1,1S476.2,507.8,475.6,507.8z"/>
<polyline class="st0" points="649.5,526.8 663.3,509.7 663.3,509.7 664.6,508.1 678.4,491 679.7,489.4 693.5,472.3 693.5,472.3 
	693.5,472.3 694.7,470.8 708.5,453.6 709.8,452.1 722.9,435.7 "/>
<path class="st1" d="M656,535.7c-1.7,2.1-4.9,2.5-7,0.8L388.5,326.6c-29.5-23.7-34.1-66.9-10.3-96.3c23.7-29.5,66.9-34.1,96.3-10.3
	l260.4,209.9c2.1,1.7,2.5,4.9,0.7,7c-1.7,2.1-4.8,2.5-7,0.8l0,0L468.2,227.7c-25-20.5-61.9-16.8-82.3,8.2s-16.8,61.9,8.2,82.3
	c0.2,0.2,0.5,0.4,0.7,0.5l260.5,209.9C657.4,530.4,657.7,533.6,656,535.7z"/>
<path class="st0" d="M708.5,453.6L436,234c-0.4-0.3-0.5-1-0.2-1.4c0,0,0,0,0,0c0.3-0.4,1-0.5,1.4-0.1l0,0l272.5,219.6
	c0.4,0.3,0.5,1,0.2,1.4c0,0,0,0,0,0C709.6,453.9,708.9,454,708.5,453.6C708.5,453.6,708.5,453.6,708.5,453.6z"/>
<path class="st0" d="M693.5,472.3L420.9,252.7c-0.4-0.3-0.5-1-0.1-1.4s1-0.5,1.4-0.1l272.5,219.6c0.4,0.3,0.5,1,0.2,1.4
	C694.5,472.6,693.9,472.7,693.5,472.3C693.5,472.3,693.5,472.3,693.5,472.3L693.5,472.3z"/>
<path class="st0" d="M678.4,491L405.9,271.4c-0.4-0.3-0.5-1-0.1-1.4c0,0,0,0,0,0c0.3-0.4,1-0.5,1.4-0.1l272.5,219.6
	c0.4,0.3,0.5,1,0.2,1.4C679.5,491.3,678.8,491.3,678.4,491L678.4,491z"/>
<path class="st0" d="M663.3,509.7L390.8,290.1c-0.5-0.3-0.6-0.9-0.3-1.4c0.3-0.5,0.9-0.6,1.4-0.3c0.1,0,0.1,0.1,0.1,0.1l0,0
	l272.5,219.6c0.4,0.3,0.5,1,0.2,1.4c0,0,0,0,0,0C664.4,510,663.8,510,663.3,509.7L663.3,509.7z"/>
<path class="st0" d="M744.5,540.8H2.5c-0.6,0-1-0.4-1-1s0.4-1,1-1h742c0.6,0,1,0.4,1,1S745.1,540.8,744.5,540.8z"/>
<line class="st0" x1="327.8" y1="388.9" x2="326.6" y2="379.2"/>
<line class="st0" x1="339.6" y1="388.9" x2="339.6" y2="375.9"/>
<path class="st0" d="M320,388.9h22v13.9h-35.9C306.1,395.1,312.3,388.9,320,388.9z"/>
<line class="st0" x1="210.9" y1="388.9" x2="208.9" y2="372.3"/>
<line class="st0" x1="222.8" y1="388.9" x2="222.8" y2="376.8"/>
<path class="st0" d="M203.2,388.9h22.1v13.9h-35.9C189.3,395.1,195.5,388.9,203.2,388.9C203.2,388.9,203.2,388.9,203.2,388.9z"/>
<path class="st0" d="M408,197.6"/>
<path class="st0" d="M180.8,163.2l-10.1,1.8c-4.5,2.6-10.3,0.9-12.8-3.6c-2.1-3.8-1.4-8.5,1.8-11.5l0,0c3.8-3.6,9.7-3.4,13.3,0.4
	l0,0c0.4,0.4,0.7,0.8,1,1.3l5.3-1"/>
<path class="st0" d="M258.7,116.2l-18.9,12.4l-58.3,18.6c-1.4,0.5-2.4,1.8-2.4,3.3c0,0.1,0,0.3,0,0.5l1.3,10.9
	c0.1,0.4,0.2,0.9,0.4,1.2c0.6,1.3,2,2,3.5,1.9l0.3-0.1l54.9-11.8c2.6-0.6,5.2-1.7,7.4-3.3l6.5-4.6v0"/>
<path class="st0" d="M307.7,182.7c19.2,30.9,34.7,160.7,37.8,187.4c0.2,2.1-1,4.1-3,4.8l-2.9,1l-9.7,3.4c-0.5,0.2-1,0.3-1.5,0.3
	c-0.6,0-1.2-0.1-1.8-0.4c-1-0.4-1.9-1.3-2.3-2.3l-52.4-129.5c-0.3-0.8-1.2-1.1-2-0.8c0,0,0,0,0,0c-0.4,0.2-0.7,0.5-0.8,0.9
	l-42.7,126.1c-0.5,1.6-1.9,2.8-3.5,3.1c-0.7,0.1-1.4,0.1-2.2-0.1l-0.3-0.1l-11.5-4.3l-2.9-1.1c-1.6-0.6-2.7-2-2.9-3.7
	c-6.4-56.2,49.8-198,50.4-199.5l0.2-0.4l1.4,0.3"/>
<path class="st0" d="M293.1,176.3"/>
<path class="st0" d="M297.6,177.3"/>
<path class="st0" d="M322.4,145.6L322.4,145.6c-0.3,1.9-0.7,3.8-1.2,5.6"/>
<path class="st0" d="M279.4,183.4c-11-0.6-22-3.6-25.8-12.6l-0.1-0.2l0.1-0.2c0.4-0.7,0.9-1.6,1.4-2.4c3-5.5,6.1-12.8,4-14.3
	c-2.7-2-4.6-4.8-5.7-8.3v0c-0.8-2.5-1.1-5.4-1.1-8.7c0.2-7.4,2.5-14.4,6.4-20.4c5.1-7.8,12.9-14,22.4-17.1c4.7-1.5,9.4-2.7,14.3-3.7
	c7.1-1.4,14.5,0.4,20.1,5c1.5,1.2,2.8,2.6,4,4.1"/>
<path class="st0" d="M304.9,182.8l-8,7c-2.1,3.9-6.6,5.8-10.8,4.6c-4.9-1.3-7.8-6.2-6.7-11.1c0-0.1,0.1-0.3,0.1-0.4c0,0,0-0.1,0-0.1
	l0-0.1c1.4-5.1,6.6-8,11.7-6.7c0,0,0,0,0,0c1.1,0.3,2.2,0.5,3.3,0.4l1.9-0.2"/>
<line class="st0" x1="295.4" y1="174.2" x2="295.4" y2="174.2"/>
<path class="st0" d="M343.4,131.8l-17-24.4l-0.1-0.1c-2.1-1.6-4.4-2.5-6.9-2.7c-0.4,0-0.9-0.1-1.3-0.1c-3.6,0-7.1,1.4-9.7,4.2
	c-4.4,4.7-4.8,12-0.9,17.1l14.9,19.8v0l1.3,1.8c0.5,0.7,0.4,1.6-0.3,2.1l-2.3,1.7l-24.1,18.6c-0.3,0.2-0.5,0.5-0.7,0.7l0,0
	c-0.9,1.1-1.2,2.4-0.9,3.7v0c0.2,1,0.7,1.9,1.6,2.6l0.6,0.5l5.6,4.6l0.1,0.1c0.5,0.4,1,0.7,1.6,0.8c0.4,0.1,0.8,0.2,1.2,0.2
	c0.5,0,1.1-0.1,1.6-0.3c0.4-0.1,0.8-0.3,1.1-0.6l34.3-26.1c1.1-0.8,2.1-1.8,2.9-2.9C351.2,146.5,350,137,343.4,131.8z"/>
<path class="st0" d="M291.8,27.8c-2.1-9.8,4.4-20.6,13.9-24.4c9.9-4,21.8-1.3,30.2,5.5s13.6,16.7,16.3,27.1
	c2.7,10.4,3.3,21.2,3.8,31.9c12.2,2.2,20.5,16.7,16.3,28.4c-4.2,11.7-19.9,17.5-30.7,11.4c-10.8-6.1-13.9-22.5-6.1-32.1
	c9.2-11.3,7.5-27.9-3.8-37.1c-6-4.9-13.7-6.8-21.1-5.5"/>
<path class="st0" d="M200.1,54.2v0.3v34.7c0,1.8-1,3.4-2.6,4.1c-6.7,3-13.6,5.3-20.7,6.9c-7.1,1.6-14.4,2.4-21.7,2.4
	c-12.5-0.1-24.9-2.4-36.6-6.9c-1.9-0.7-3.9-1.5-5.8-2.4h0c-1.6-0.7-2.7-2.3-2.7-4.1V54.5v-0.1"/>
<path class="st0" d="M155.1,73.1c-0.6,0-1.2-0.1-1.8-0.3L89.1,45.6c-2.3-1-3.4-3.6-2.4-5.9c0,0,0,0,0,0c0.5-1.1,1.4-2,2.6-2.5
	l64.2-24.4c1-0.4,2.2-0.4,3.2,0l63.4,24.4c2.3,0.9,3.5,3.5,2.6,5.8c-0.4,1.1-1.3,2-2.4,2.5l-63.4,27.1
	C156.3,73,155.7,73.1,155.1,73.1z"/>
<circle class="st0" cx="117.6" cy="89.8" r="6"/>
<path class="st2" d="M220.5,41.8l-63.4,27.1c-1,0.4-2.1,0.4-3.1,0L89.7,41.8c-0.8-0.3-1.5-0.9-1.9-1.7c-1.1,1.9-0.4,4.4,1.5,5.5
	c0.1,0.1,0.3,0.2,0.4,0.2L154,72.9c1,0.4,2.1,0.4,3.1,0l63.4-27.1c2-0.9,3-3.2,2.1-5.3c0,0,0,0,0,0c-0.1-0.1-0.1-0.3-0.2-0.4
	C221.9,40.8,221.3,41.4,220.5,41.8z"/>
<path class="st0" d="M117.1,83.8V57.4v-0.1v-2c0-0.7,0.3-1.3,0.8-1.6c0.3-0.2,0.7-0.4,1.2-0.4l33-12c0.6,0,1,0.5,1,1s-0.4,1-1,1
	l-31.6,11.5l-1.4,0.5v2.9v0.1V84"/>
<path class="st0" d="M261,65v-5c0-17.8,14.4-32.3,32.3-32.3l0,0c17.8,0,32.3,14.4,32.3,32.2c0,0,0,0,0,0l0,0v5
	c0,12.8-10.4,23.3-23.3,23.3h-18C271.4,88.3,261,77.9,261,65L261,65z"/>
<path class="st0" d="M271.5,54c-1.8,3.4-2.8,7.3-2.8,11.5c0,10.4,6.4,19.2,15.5,22.8c2.8,1.1,5.8,1.7,9,1.7s6.2-0.6,9-1.7
	c9.1-3.6,15.5-12.5,15.5-22.8c0-4.8-1.4-9.3-3.8-13.1"/>
<path class="st0" d="M314,52.4v6.1c0,1.1-0.9,2-2,2h-38.5c-1.1,0-2-0.9-2-2V54"/>
</svg>
