<svg id="b7798a4d-5163-44df-883c-b45df1683271" xmlns="http://www.w3.org/2000/svg" viewBox="0 0 747 542.29"><defs><style>.cls-1,.cls-2,.cls-3{fill:#fffffd;stroke-miterlimit:10;}.cls-1,.cls-2{stroke:#355c7d;stroke-width:3px;}.cls-2{opacity:0.2;isolation:isolate;}.cls-3{stroke:#fff;}</style></defs><path class="cls-1" d="M474.11,404.29v130H148.42c-37.11,0-67.31-29.16-67.31-65s30.2-65,67.31-65Z" transform="translate(1.5 1.5)"/><path class="cls-1" d="M482.11,533.29a5,5,0,0,1-5,5H142.61a68.5,68.5,0,0,1,0-137h334.5a5,5,0,0,1,0,10H142.61a58.5,58.5,0,0,0,0,117h334.5A5,5,0,0,1,482.11,533.29Z" transform="translate(1.5 1.5)"/><path class="cls-1" d="M474.11,434.29h-350a1,1,0,1,1,0-2h350a1,1,0,0,1,0,2Z" transform="translate(1.5 1.5)"/><path class="cls-1" d="M474.11,458.29h-350a1,1,0,1,1,0-2h350a1,1,0,0,1,0,2Z" transform="translate(1.5 1.5)"/><path class="cls-1" d="M474.11,482.29h-350a1,1,0,1,1,0-2h350a1,1,0,0,1,0,2Z" transform="translate(1.5 1.5)"/><path class="cls-1" d="M474.11,506.29h-350a1,1,0,1,1,0-2h350a1,1,0,0,1,0,2Z" transform="translate(1.5 1.5)"/><path class="cls-1" d="M725.83,428.76,644.27,530,390.65,325.64c-28.89-23.29-34.11-64.94-11.62-92.85s64.29-31.67,93.19-8.38Z" transform="translate(1.5 1.5)"/><path class="cls-1" d="M651.12,534.23a5,5,0,0,1-7,.75L383.62,325.11a68.5,68.5,0,0,1,86-106.68L730.05,428.3a5,5,0,0,1-6.27,7.79h0L463.31,226.22a58.5,58.5,0,1,0-73.41,91.1L650.37,527.2A5,5,0,0,1,651.12,534.23Z" transform="translate(1.5 1.5)"/><path class="cls-1" d="M707,452.12,434.47,232.52a1,1,0,0,1-.15-1.41,1,1,0,0,1,1.4-.15h0l272.53,219.6a1,1,0,0,1,.16,1.41,1,1,0,0,1-1.41.15Z" transform="translate(1.5 1.5)"/><path class="cls-1" d="M692,470.81,419.41,251.21a1,1,0,0,1,1.26-1.56l272.54,219.6a1,1,0,0,1,.15,1.4,1,1,0,0,1-1.41.16Z" transform="translate(1.5 1.5)"/><path class="cls-1" d="M676.89,489.49,404.35,269.9a1,1,0,0,1-.14-1.41,1,1,0,0,1,1.4-.15l272.54,219.6a1,1,0,0,1,.15,1.4,1,1,0,0,1-1.4.16Z" transform="translate(1.5 1.5)"/><path class="cls-1" d="M661.83,508.18,389.3,288.58a1,1,0,1,1,1.25-1.55h0L663.09,506.62a1,1,0,0,1,.15,1.41,1,1,0,0,1-1.4.15Z" transform="translate(1.5 1.5)"/><path class="cls-1" d="M743,539.29H1a1,1,0,0,1,0-2H743a1,1,0,0,1,0,2Z" transform="translate(1.5 1.5)"/><polygon class="cls-1" points="339.58 392.12 328.15 392.12 322.71 348.02 339.58 348.03 339.58 392.12"/><path class="cls-1" d="M318.48,387.35h22v13.89H304.6a13.89,13.89,0,0,1,13.88-13.89Z" transform="translate(1.5 1.5)"/><polygon class="cls-1" points="222.79 392.12 211.35 392.12 205.92 348.02 222.79 348.03 222.79 392.12"/><path class="cls-1" d="M201.69,387.35h22.05v13.89H187.81a13.88,13.88,0,0,1,13.88-13.89Z" transform="translate(1.5 1.5)"/><path class="cls-1" d="M406.49,196.12" transform="translate(1.5 1.5)"/><path class="cls-1" d="M158.12,148.36a9.37,9.37,0,0,1,13.26.38,9,9,0,0,1,1,1.29l21.06-4,5.54,12.2-29.81,5.21a9.43,9.43,0,0,1-11.07-15.1Z" transform="translate(1.5 1.5)"/><path class="cls-1" d="M272.57,104l.28.42-34.53,22.74-58.26,18.61a3.5,3.5,0,0,0-2.41,3.73l1.27,10.95a3.5,3.5,0,0,0,3.88,3.07l.33-.05L238,151.69a19.7,19.7,0,0,0,7.37-3.25l38.79-27.6a10,10,0,0,0-11.27-16.45Z" transform="translate(1.5 1.5)"/><path class="cls-1" d="M326.85,378.11a4.51,4.51,0,0,1-4.13-2.7l-52.41-129.5a1.51,1.51,0,0,0-2-.78,1.53,1.53,0,0,0-.83.93L224.74,372.14a4.51,4.51,0,0,1-5.63,3l-.25-.09-14.34-5.38a4.48,4.48,0,0,1-2.9-3.7c-6.45-56.19,49.8-198,50.37-199.46l.16-.39,51.28,11.34.1.12C324,199.87,340.81,340.64,344,368.63a4.49,4.49,0,0,1-3,4.75l-12.66,4.47A4.45,4.45,0,0,1,326.85,378.11Z" transform="translate(1.5 1.5)"/><path class="cls-1" d="M282.67,182c-12.42,0-26.27-2.48-30.54-12.71l-.09-.23.13-.22c3.36-5.52,7.81-14.94,5.42-16.71-4.71-3.48-7-9.21-6.79-17,.44-17,12-32,28.77-37.48h0A127.49,127.49,0,0,1,293.83,94a24.28,24.28,0,0,1,20.13,5,24.52,24.52,0,0,1,9.1,18.87c.17,18.13-2.62,43.38-16.91,60.72a4.51,4.51,0,0,1-2.64,1.53A123.45,123.45,0,0,1,282.67,182Z" transform="translate(1.5 1.5)"/><path class="cls-1" d="M278.05,181.33a9.57,9.57,0,0,1,11.68-6.67,9.36,9.36,0,0,1,1.45.54l16-14.55,11.12,7.49-22.86,20.23A9.54,9.54,0,0,1,284.61,193,9.39,9.39,0,0,1,278,181.42Z" transform="translate(1.5 1.5)"/><path class="cls-1" d="M304.63,181.51a4.5,4.5,0,0,1-2.84-1l-6.31-5.16a4.49,4.49,0,0,1-.63-6.33,4.2,4.2,0,0,1,.74-.72L322,148a1.52,1.52,0,0,0,.29-2.1L306,124.34a13.3,13.3,0,0,1,.88-17.12h0a13.26,13.26,0,0,1,17.89-1.43l.1.11,17.05,24.4a15.19,15.19,0,0,1,2.58,21.33,15,15,0,0,1-2.94,2.86l-34.25,26.14A4.53,4.53,0,0,1,304.63,181.51Z" transform="translate(1.5 1.5)"/><path class="cls-1" d="M290.72,27.9c-3.2-10.24,3.52-22,13.45-26S326,.65,334.37,7.35,348,24.07,350.7,34.44s3.28,21.18,3.79,31.89c12.2,2.24,20.5,16.72,16.27,28.38s-19.87,17.46-30.67,11.36S326.15,83.59,334,73.94A26.38,26.38,0,0,0,303.26,33C297.25,35.55,289.7,29,290.72,27.9Z" transform="translate(1.5 1.5)"/><path class="cls-1" d="M153.61,101.08a104.29,104.29,0,0,1-42.34-9.27,4.49,4.49,0,0,1-2.66-4.11V51.29a4.51,4.51,0,0,1,4.5-4.5h81a4.49,4.49,0,0,1,4.5,4.5V87.7A4.46,4.46,0,0,1,196,91.81h0A104.33,104.33,0,0,1,153.61,101.08Z" transform="translate(1.5 1.5)"/><path class="cls-1" d="M153.6,71.58a4.59,4.59,0,0,1-1.75-.35L87.62,44.13a4.5,4.5,0,0,1-2.39-5.9,4.45,4.45,0,0,1,2.55-2.45L152,11.41a4.5,4.5,0,0,1,3.21,0l63.37,24.37a4.5,4.5,0,0,1,.16,8.34l-63.38,27.1A4.48,4.48,0,0,1,153.6,71.58Z" transform="translate(1.5 1.5)"/><circle class="cls-1" cx="117.61" cy="89.79" r="6"/><path class="cls-2" d="M219,40.27l-63.37,27.1a4,4,0,0,1-3.13,0L88.23,40.28a3.91,3.91,0,0,1-1.91-1.68,4,4,0,0,0,1.47,5.46,3.61,3.61,0,0,0,.44.22l64.23,27.1a4,4,0,0,0,3.13,0L219,44.27A4,4,0,0,0,221.07,39a3.42,3.42,0,0,0-.21-.43A3.92,3.92,0,0,1,219,40.27Z" transform="translate(1.5 1.5)"/><path class="cls-1" d="M116.62,88.26a1,1,0,0,0,1-1V53.8l33-12a1,1,0,0,0,1-1,1,1,0,0,0-1-1l-33,12a2,2,0,0,0-2,2V87.26A1,1,0,0,0,116.62,88.26Z" transform="translate(1.5 1.5)"/><path class="cls-1" d="M259.47,63.53v-5a32.25,32.25,0,0,1,32.25-32.25h0A32.25,32.25,0,0,1,324,58.53h0v5a23.25,23.25,0,0,1-23.25,23.25h-18a23.25,23.25,0,0,1-23.25-23.25Z" transform="translate(1.5 1.5)"/><circle class="cls-1" cx="293.22" cy="65.44" r="24.56"/><path class="cls-1" d="M270,57V44.85l21.75-9.5,20.75,9.5V57a2,2,0,0,1-2,2H272A2,2,0,0,1,270,57Z" transform="translate(1.5 1.5)"/><polygon class="cls-3" points="317.17 47.4 269.01 47.4 270.69 40.37 293.11 34.37 315.98 40.88 317.17 47.4"/></svg>