<svg id="b7798a4d-5163-44df-883c-b45df1683271" xmlns="http://www.w3.org/2000/svg" viewBox="0 0 747 542.25"><defs><style>.cls-1,.cls-3{fill:none;}.cls-1,.cls-2,.cls-3{stroke:#fff;stroke-miterlimit:10;stroke-width:3px;}.cls-2{fill:#fff;}.cls-3{opacity:0.2;isolation:isolate;}</style></defs><polyline class="cls-1" points="475.61 529.75 475.61 507.75 475.61 505.75 475.61 483.75 475.61 481.75 475.61 459.75 475.61 457.75 475.61 435.75 475.61 433.75 475.61 412.75"/><path class="cls-2" d="M483.61,534.79a5,5,0,0,1-5,5H144.11a68.5,68.5,0,0,1,0-137h334.5a5,5,0,0,1,0,10H144.11a58.5,58.5,0,0,0,0,117h334.5A5,5,0,0,1,483.61,534.79Z" transform="translate(0 -0.04)"/><path class="cls-1" d="M475.61,435.79h-350a1,1,0,1,1,0-2h350a1,1,0,0,1,0,2Z" transform="translate(0 -0.04)"/><path class="cls-1" d="M475.61,459.79h-350a1,1,0,1,1,0-2h350a1,1,0,0,1,0,2Z" transform="translate(0 -0.04)"/><path class="cls-1" d="M475.61,483.79h-350a1,1,0,1,1,0-2h350a1,1,0,0,1,0,2Z" transform="translate(0 -0.04)"/><path class="cls-1" d="M475.61,507.79h-350a1,1,0,1,1,0-2h350a1,1,0,0,1,0,2Z" transform="translate(0 -0.04)"/><polyline class="cls-1" points="649.54 526.78 663.34 509.64 663.35 509.64 664.6 508.09 678.4 490.96 679.65 489.4 693.45 472.27 693.46 472.27 693.47 472.25 694.71 470.71 708.51 453.58 709.76 452.03 722.94 435.67"/><path class="cls-2" d="M656,535.73a5,5,0,0,1-7,.75L388.49,326.61a68.51,68.51,0,0,1,86-106.68L734.92,429.8a5,5,0,0,1-6.27,7.79h0L468.18,227.72a58.5,58.5,0,1,0-74.09,90.55l.68.55L655.24,528.7A5,5,0,0,1,656,535.73Z" transform="translate(0 -0.04)"/><path class="cls-1" d="M708.5,453.62,436,234a1,1,0,0,1-.15-1.41h0a1,1,0,0,1,1.4-.15h0l272.53,219.6a1,1,0,0,1,.16,1.4h0a1,1,0,0,1-1.41.15Z" transform="translate(0 -0.04)"/><path class="cls-1" d="M693.5,472.31,420.91,252.71a1,1,0,0,1,1.26-1.56l272.54,219.6a1,1,0,0,1-1.25,1.56h0Z" transform="translate(0 -0.04)"/><path class="cls-1" d="M678.39,491,405.85,271.4a1,1,0,0,1-.14-1.41h0a1,1,0,0,1,1.4-.15l272.54,219.6A1,1,0,0,1,678.4,491Z" transform="translate(0 -0.04)"/><path class="cls-1" d="M663.33,509.68,390.8,290.08a1,1,0,0,1,1.1-1.67l.15.12h0L664.59,508.12a1,1,0,0,1,.15,1.41h0a1,1,0,0,1-1.4.15Z" transform="translate(0 -0.04)"/><path class="cls-1" d="M744.5,540.79H2.5a1,1,0,0,1,0-2h742a1,1,0,0,1,0,2Z" transform="translate(0 -0.04)"/><line class="cls-1" x1="327.75" y1="388.81" x2="326.56" y2="379.2"/><line class="cls-1" x1="339.58" y1="388.81" x2="339.58" y2="375.87"/><path class="cls-1" d="M320,388.85h22v13.89H306.1A13.89,13.89,0,0,1,320,388.85Z" transform="translate(0 -0.04)"/><line class="cls-1" x1="210.95" y1="388.81" x2="208.9" y2="372.21"/><line class="cls-1" x1="222.79" y1="388.81" x2="222.79" y2="376.71"/><path class="cls-1" d="M203.19,388.85h22.05v13.89H189.31a13.87,13.87,0,0,1,13.87-13.89Z" transform="translate(0 -0.04)"/><path class="cls-1" d="M408,197.62" transform="translate(0 -0.04)"/><path class="cls-1" d="M180.8,163.17l-10.13,1.77a9.43,9.43,0,0,1-11.07-15.1l0,0a9.37,9.37,0,0,1,13.25.37h0a8.9,8.9,0,0,1,1,1.29l5.25-1" transform="translate(0 -0.04)"/><path class="cls-1" d="M258.68,116.24l-18.86,12.42-58.26,18.61a3.49,3.49,0,0,0-2.43,3.26,2.5,2.5,0,0,0,0,.47L180.42,162a3.35,3.35,0,0,0,.38,1.22,3.49,3.49,0,0,0,3.5,1.85l.33-.05,54.87-11.78a19.68,19.68,0,0,0,7.37-3.25l6.49-4.61h0" transform="translate(0 -0.04)"/><path class="cls-1" d="M307.72,182.71C327,213.58,342.45,343.38,345.5,370.13a4.48,4.48,0,0,1-3,4.75l-2.92,1-9.74,3.44a4.45,4.45,0,0,1-1.49.26,4.51,4.51,0,0,1-4.13-2.7l-52.41-129.5a1.51,1.51,0,0,0-2-.79h0a1.53,1.53,0,0,0-.83.93L226.24,373.64a4.52,4.52,0,0,1-5.63,3l-.25-.09-11.46-4.3L206,371.17a4.48,4.48,0,0,1-2.9-3.7c-6.45-56.19,49.8-198,50.37-199.46l.16-.39,1.41.31" transform="translate(0 -0.04)"/><path class="cls-1" d="M293.08,176.34" transform="translate(0 -0.04)"/><path class="cls-1" d="M297.57,177.33" transform="translate(0 -0.04)"/><path class="cls-1" d="M322.44,145.61h0c-.34,1.87-.74,3.75-1.2,5.62" transform="translate(0 -0.04)"/><path class="cls-1" d="M279.39,183.37c-11-.63-22-3.65-25.76-12.58l-.09-.23.13-.22c.45-.74.92-1.55,1.39-2.41,3-5.5,6.1-12.77,4-14.3a15.83,15.83,0,0,1-5.73-8.3h0a26.36,26.36,0,0,1-1.06-8.69,39.26,39.26,0,0,1,6.38-20.39,42.24,42.24,0,0,1,22.39-17.09,127.36,127.36,0,0,1,14.26-3.65,24.49,24.49,0,0,1,24.09,9" transform="translate(0 -0.04)"/><path class="cls-1" d="M304.89,182.83l-7.95,7a9.53,9.53,0,0,1-10.83,4.63,9.39,9.39,0,0,1-6.72-11.13c0-.12.06-.25.09-.38s0-.05,0-.07l.05-.09a9.57,9.57,0,0,1,11.68-6.67h0a9.08,9.08,0,0,0,3.27.37l1.94-.19" transform="translate(0 -0.04)"/><line class="cls-1" x1="295.41" y1="174.18" x2="295.41" y2="174.17"/><path class="cls-1" d="M343.42,131.8l-17.05-24.4-.1-.11a13.13,13.13,0,0,0-6.85-2.74,11.5,11.5,0,0,0-1.31-.07,13.32,13.32,0,0,0-10.61,21.36l14.94,19.77h0l1.35,1.78a1.52,1.52,0,0,1-.29,2.1l-2.26,1.74L297.09,169.8a4.2,4.2,0,0,0-.74.72h0a4.45,4.45,0,0,0-.93,3.68h0a4.44,4.44,0,0,0,1.57,2.63l.59.48,5.62,4.59.1.09a4.43,4.43,0,0,0,1.6.82,4.36,4.36,0,0,0,2.83-.12,4.24,4.24,0,0,0,1.09-.58L343.06,156a14.76,14.76,0,0,0,2.94-2.86A15.19,15.19,0,0,0,343.42,131.8Z" transform="translate(0 -0.04)"/><path class="cls-1" d="M291.81,27.81C289.72,18,296.25,7.19,305.67,3.4c9.93-4,21.83-1.25,30.2,5.45S349.5,25.57,352.2,35.94s3.28,21.18,3.79,31.89c12.2,2.24,20.5,16.72,16.27,28.38s-19.87,17.46-30.67,11.36-13.94-22.48-6.09-32.13a26.37,26.37,0,0,0-24.93-42.63" transform="translate(0 -0.04)"/><path class="cls-1" d="M200.11,54.23v35a4.45,4.45,0,0,1-2.61,4.11,104.83,104.83,0,0,1-20.71,6.87,104.35,104.35,0,0,1-21.68,2.4,104.13,104.13,0,0,1-36.55-6.87c-2-.73-3.88-1.54-5.79-2.4h0a4.51,4.51,0,0,1-2.65-4.11V54.38" transform="translate(0 -0.04)"/><path class="cls-1" d="M155.1,73.08a4.56,4.56,0,0,1-1.75-.35L89.12,45.63a4.5,4.5,0,0,1-2.39-5.9h0a4.48,4.48,0,0,1,2.55-2.45L153.5,12.91a4.55,4.55,0,0,1,3.21,0l63.37,24.37a4.5,4.5,0,0,1,.16,8.34l-63.38,27.1A4.47,4.47,0,0,1,155.1,73.08Z" transform="translate(0 -0.04)"/><circle class="cls-1" cx="117.61" cy="89.75" r="6"/><path class="cls-3" d="M220.5,41.77l-63.37,27.1a4,4,0,0,1-3.13,0L89.73,41.78a3.87,3.87,0,0,1-1.91-1.68,4,4,0,0,0,1.47,5.46,3.61,3.61,0,0,0,.44.22L154,72.88a4,4,0,0,0,3.13,0L220.5,45.77a4,4,0,0,0,2.07-5.26h0a3.42,3.42,0,0,0-.21-.43A3.94,3.94,0,0,1,220.5,41.77Z" transform="translate(0 -0.04)"/><path class="cls-1" d="M117.12,83.81V55.3a2,2,0,0,1,.83-1.62,2,2,0,0,1,1.17-.38l33-12a1,1,0,0,1,0,2L120.56,54.78l-1.44.52V84" transform="translate(0 -0.04)"/><path class="cls-1" d="M261,65V60a32.25,32.25,0,0,1,32.25-32.25h0A32.25,32.25,0,0,1,325.5,60v0h0v5a23.25,23.25,0,0,1-23.25,23.25h-18A23.25,23.25,0,0,1,261,65Z" transform="translate(0 -0.04)"/><path class="cls-1" d="M271.5,54a24.27,24.27,0,0,0-2.84,11.45,24.56,24.56,0,1,0,49.12,0A24.29,24.29,0,0,0,314,52.37" transform="translate(0 -0.04)"/><path class="cls-1" d="M314,52.37V58.5a2,2,0,0,1-2,2H273.5a2,2,0,0,1-2-2V54" transform="translate(0 -0.04)"/></svg>