<?xml version="1.0" encoding="UTF-8"?>
<!DOCTYPE svg PUBLIC "-//W3C//DTD SVG 1.1//EN" "http://www.w3.org/Graphics/SVG/1.1/DTD/svg11.dtd">
<!-- Creator: CorelDRAW 2020 (64-Bit) -->
<svg xmlns="http://www.w3.org/2000/svg" xml:space="preserve" width="67.7332mm" height="67.7332mm" version="1.1" style="shape-rendering:geometricPrecision; text-rendering:geometricPrecision; image-rendering:optimizeQuality; fill-rule:evenodd; clip-rule:evenodd"
viewBox="0 0 6773.32 6773.32"
 xmlns:xlink="http://www.w3.org/1999/xlink"
 xmlns:xodm="http://www.corel.com/coreldraw/odm/2003">
 <defs>
  <style type="text/css">
   <![CDATA[
    .fil0 {fill:#3B317B}
   ]]>
  </style>
 </defs>
 <g id="Capa_x0020_1">
  <metadata id="CorelCorpID_0Corel-Layer"/>
  <path class="fil0" d="M2941.8 374.51c-2799.63,399.32 -3705.61,3662.71 -1663.71,5459.32 911.51,802.02 2424.52,1011.46 3538.32,327.34 676.79,-415.74 1129.42,-893.16 1402.96,-1701.16 145.62,-430.12 206.64,-880.95 145.14,-1372.92 -215.49,-1723.31 -1826.83,-2940.17 -3422.71,-2712.58zm-1441.37 2517.45l955.94 477.94c108.69,34.4 254.04,-124.22 396.37,-256.12 141.89,-131.55 339.71,-349.74 425.94,-245.71 117.17,141.37 -417.64,387.63 -568.97,612.94 89.96,73.4 517.77,289.31 588.12,278.66l1751.84 -878.67c-171.9,-99.81 -1706.79,-875.79 -1771.03,-875.79 -47.91,-0.04 -1685.73,810.38 -1778.21,886.75zm3080.74 457.4c-248.37,77.24 -873.68,426.25 -1177.48,578.34 -136.45,68.35 -125.91,66.41 -252.52,3.97 -122.45,-60.36 -348.9,-160.87 -447.09,-231.22 -25.55,165.6 81.21,532.04 102.54,720.84 -206.81,116.27 -245.95,175.84 -460.92,-3.59l117.3 -844.62 -426.18 -199.28c-27.27,433.37 -69.76,917.64 182.83,1165.87 223.23,219.43 637.14,354.02 1058.96,359.69 424.04,5.71 839.5,-115.92 1082.47,-335.32 313.68,-283.22 220.09,-706.8 220.09,-1214.68z"/>
 </g>
</svg>
