<svg id="Capa_1" data-name="Capa 1" xmlns="http://www.w3.org/2000/svg" viewBox="0 0 151.73 219.14"><defs><style>.cls-1{fill:#fff;stroke:#fff;stroke-miterlimit:10;}</style></defs><g id="Dudas"><circle class="cls-1" cx="74.92" cy="188.69" r="29.96"/><path class="cls-1" d="M144.94,163H107.68a9.87,9.87,0,0,1-9.86-9.86V140.89a24.35,24.35,0,0,1,6.54-16.57,70.53,70.53,0,0,1,15.8-13.12c9.11-5.24,14-7.36,22.34-12.86a35.63,35.63,0,0,0,8.78-9c4.63-6.22,3.86-15.68-1.92-20.83l-.76-.66-.25-.2c-11.06-9.2-26.72-10.36-39.63-4a50.87,50.87,0,0,0-4.47,2.51,48.67,48.67,0,0,0-16.2,17.13,4.41,4.41,0,0,1-6.73,1.15L55.64,62.34a6.56,6.56,0,0,1-1.19-8.59c4.85-7.4,17.94-17.7,30.09-25.31,20-12.53,43.3-12.77,50.77-12.44,5.25.8,32.16-.09,56.28,25.81a5.63,5.63,0,0,1,.36.46c15.46,19.55,16,46.94,2.66,68a79.24,79.24,0,0,1-32.43,29.22A20.78,20.78,0,0,0,152.29,150l0,.12a28.59,28.59,0,0,0-2.19,8.43A5.09,5.09,0,0,1,144.94,163Z" transform="translate(-52.86 -15.43)"/></g></svg>