<svg id="Capa_1" data-name="Capa 1" xmlns="http://www.w3.org/2000/svg" viewBox="0 0 326.01 465.26"><defs><style>.cls-1{fill:#fff;stroke:#fff;stroke-miterlimit:10;stroke-width:15px;}</style></defs><g id="Dudas"><circle class="cls-1" cx="161.12" cy="395.96" r="61.8"/><path class="cls-1" d="M273.4,318.4H196.5a20.31,20.31,0,0,1-20.3-20.3V272.8a50,50,0,0,1,13.5-34.2,146.07,146.07,0,0,1,32.6-27.1c18.8-10.8,28.9-15.2,46.1-26.5a74.4,74.4,0,0,0,18.1-18.6c9.6-12.8,8-32.4-4-43l-1.6-1.4-.5-.4c-22.8-19-55.1-21.4-81.8-8.3a103.6,103.6,0,0,0-9.2,5.2A99.94,99.94,0,0,0,156,153.8a9,9,0,0,1-12.4,3.4c-.5-.3-1-.7-1.5-1l-53-45.6a13.53,13.53,0,0,1-2.5-17.7c10-15.3,37-36.5,62.1-52.2C190,14.8,238,14.3,253.5,15c10.8,1.7,66.4-.2,116.1,53.3a5.5,5.5,0,0,1,.7.9c31.9,40.3,33,96.9,5.5,140.3a162.93,162.93,0,0,1-66.9,60.3,43.11,43.11,0,0,0-20.4,21.7v.2a58,58,0,0,0-4.5,17.4A10.37,10.37,0,0,1,273.4,318.4Z" transform="translate(-76.88 -7.34)"/></g></svg>