<?xml version="1.0" encoding="utf-8"?>
<!-- Generator: Adobe Illustrator 24.1.1, SVG Export Plug-In . SVG Version: 6.00 Build 0)  -->
<svg version="1.1" id="Capa_1" xmlns="http://www.w3.org/2000/svg" xmlns:xlink="http://www.w3.org/1999/xlink" x="0px" y="0px"
	 viewBox="0 0 480 480" style="enable-background:new 0 0 480 480;" xml:space="preserve">
<style type="text/css">
	.st0{fill:none;stroke:#FFFFFF;stroke-width:15;stroke-miterlimit:10;}
</style>
<g id="Dudas">
	<circle class="st0" cx="238" cy="403.3" r="61.8"/>
	<path class="st0" d="M273.4,318.4h-76.9c-11.2,0-20.3-9.1-20.3-20.3v-25.3c0-12.7,4.8-24.9,13.5-34.2c9.5-10.6,20.5-19.7,32.6-27.1
		c18.8-10.8,28.9-15.2,46.1-26.5c7.1-5.1,13.2-11.4,18.1-18.6c9.6-12.8,8-32.4-4-43l-1.6-1.4l-0.5-0.4c-22.8-19-55.1-21.4-81.8-8.3
		c-3.2,1.6-6.2,3.3-9.2,5.2c-13.9,8.9-25.4,21-33.4,35.3c-2.5,4.4-8,5.9-12.4,3.4c-0.5-0.3-1-0.7-1.5-1l-53-45.6
		c-5.2-4.4-6.2-12-2.5-17.7c10-15.3,37-36.5,62.1-52.2c41.3-25.9,89.3-26.4,104.8-25.7c10.8,1.7,66.4-0.2,116.1,53.3
		c0.3,0.3,0.5,0.6,0.7,0.9c31.9,40.3,33,96.9,5.5,140.3c-16.2,26-39.4,46.9-66.9,60.3c-9.2,4.6-16.4,12.3-20.4,21.7v0.2
		c-2.4,5.5-3.9,11.4-4.5,17.4C283.4,314.6,278.8,318.5,273.4,318.4z"/>
</g>
</svg>
