<?xml version="1.0" encoding="utf-8"?>
<!-- Generator: Adobe Illustrator 24.1.1, SVG Export Plug-In . SVG Version: 6.00 Build 0)  -->
<svg version="1.1" id="Capa_1" xmlns="http://www.w3.org/2000/svg" xmlns:xlink="http://www.w3.org/1999/xlink" x="0px" y="0px"
	 viewBox="0 0 480 480" style="enable-background:new 0 0 480 480;" xml:space="preserve">
<style type="text/css">
	.st0{fill:none;stroke:#FFFFFF;stroke-width:15;stroke-miterlimit:10;}
</style>
<g id="Inicio">
	<path class="st0" d="M329.4,120.7V51.3c-0.1-2.6,1.9-4.8,4.5-4.9c0,0,0,0,0,0h57.4c2.6,0.1,4.6,2.3,4.5,4.9v129.2
		c0,1.5,0.6,2.9,1.7,3.9l65.9,57.8c2,1.9,2.3,5,0.5,7.2l-24.3,30c-1.4,1.8-4,2.1-5.8,0.7c-0.1,0-0.1-0.1-0.2-0.1L242.7,114.5
		c-1.6-1.4-4-1.4-5.5,0L46.5,279.6c-1.7,1.5-4.4,1.3-5.9-0.4c0-0.1-0.1-0.1-0.1-0.2l-24.3-29.9c-1.7-2.1-1.5-5.3,0.5-7.1L237.2,48.8
		c1.6-1.4,4-1.4,5.6,0l83.8,73.4c0.7,0.6,1.8,0.5,2.5-0.2C329.3,121.7,329.4,121.2,329.4,120.7z"/>
	<path class="st0" d="M240,311.9h33.8c2.5,0.1,4.5,2.3,4.4,4.8v114.7c-0.1,1.2,0.8,2.1,2,2.2c0,0,0,0,0,0h116.7c1.2-0.1,2.1-1,2-2.2
		c0,0,0,0,0,0V288.8c0-3.9-1.6-7.6-4.5-10.3L241.2,142.9c-0.7-0.7-1.8-0.7-2.5,0L85.6,278.5c-2.9,2.6-4.5,6.4-4.5,10.3v142.6
		c-0.1,1.2,0.8,2.1,2,2.2c0,0,0,0,0,0h116.7c1.2-0.1,2.1-1,2-2.2c0,0,0,0,0,0V316.8c-0.1-2.5,1.8-4.7,4.4-4.9c0,0,0,0,0,0H240z"/>
</g>
</svg>
