<svg id="Capa_1" data-name="Capa 1" xmlns="http://www.w3.org/2000/svg" viewBox="0 0 226.19 194.84"><defs><style>.cls-1{fill:#fff;stroke:#fff;stroke-miterlimit:10;}</style></defs><g id="Inicio"><path class="cls-1" d="M169.74,65.3V30.54A2.35,2.35,0,0,1,172,28.08h28.71a2.35,2.35,0,0,1,2.23,2.46V95.18a2.56,2.56,0,0,0,.85,1.93l33,28.91a2.64,2.64,0,0,1,.27,3.58l-12.18,15a2.08,2.08,0,0,1-3,.29L126.38,62.17a2.05,2.05,0,0,0-2.76,0L28.17,144.84a2.08,2.08,0,0,1-3-.29L13,129.59a2.61,2.61,0,0,1,.27-3.56L123.61,29.3a2.06,2.06,0,0,1,2.78,0l41.92,36.75A.87.87,0,0,0,169.74,65.3Z" transform="translate(-11.91 -27.58)"/><path class="cls-1" d="M125,161h16.9a2.31,2.31,0,0,1,2.19,2.41v57.39a1.05,1.05,0,0,0,1,1.1h58.42a1.05,1.05,0,0,0,1-1.1V149.43a6.84,6.84,0,0,0-2.24-5.14L125.63,76.38a.93.93,0,0,0-1.26,0L47.73,144.29a6.84,6.84,0,0,0-2.24,5.14v71.39a1.05,1.05,0,0,0,1,1.1h58.42a1.05,1.05,0,0,0,1-1.1V163.43A2.31,2.31,0,0,1,108.1,161Z" transform="translate(-11.91 -27.58)"/></g></svg>