<svg id="Capa_1" data-name="Capa 1" xmlns="http://www.w3.org/2000/svg" viewBox="0 0 251 251"><defs><style>.cls-1{fill:none;}.cls-1,.cls-2{stroke:#fff;stroke-miterlimit:10;}.cls-2{fill:#fff;}</style></defs><g id="Mi_Perfil" data-name="Mi Perfil"><circle class="cls-1" cx="125.5" cy="125.5" r="125"/><circle class="cls-2" cx="123.54" cy="98.12" r="47.55"/><path class="cls-2" d="M222.65,203c-5.68-6.95-21.67-21.48-37.39-29.75a101.53,101.53,0,0,0-22.09-8.49,27.2,27.2,0,0,0-14.75.54A74.33,74.33,0,0,1,136,168a73.45,73.45,0,0,1-13,.41,72.72,72.72,0,0,1-25.38-3,27.2,27.2,0,0,0-14.75-.54,101.53,101.53,0,0,0-22.09,8.49C45.1,181.55,30.73,193.11,25,200.06a126.71,126.71,0,0,0,197.61,3Z" transform="translate(0.5 0.5)"/></g></svg>