<svg id="Capa_1" data-name="Capa 1" xmlns="http://www.w3.org/2000/svg" viewBox="0 0 465 465"><defs><style>.cls-1{fill:none;stroke:#fff;stroke-miterlimit:10;stroke-width:15px;}</style></defs><g id="Mi_Perfil" data-name="Mi Perfil"><circle class="cls-1" cx="232.5" cy="232.5" r="225"/><circle class="cls-1" cx="229" cy="183.2" r="85.6"/><path class="cls-1" d="M60,375.1" transform="translate(-7.5 -7.5)"/><path class="cls-1" d="M124.3,327.1" transform="translate(-7.5 -7.5)"/><path class="cls-1" d="M415.8,380.4c-10.2-12.5-39-38.7-67.3-53.5a182.94,182.94,0,0,0-39.8-15.3,48.68,48.68,0,0,0-26.5,1,125.12,125.12,0,0,1-45.8,5.6,130.94,130.94,0,0,1-45.7-5.4" transform="translate(-7.5 -7.5)"/></g><path class="cls-1" d="M57.5,380.4c10.2-12.5,39-38.7,67.3-53.5a182.94,182.94,0,0,1,39.8-15.3c8.33-2,16.86-1.27,26.73,1.39" transform="translate(-7.5 -7.5)"/></svg>