<svg id="Capa_1" data-name="Capa 1" xmlns="http://www.w3.org/2000/svg" viewBox="0 0 241 190.37"><defs><style>.cls-1{fill:none;stroke:#fff;stroke-miterlimit:10;}</style></defs><g id="Postulaciones"><path class="cls-1" d="M39.66,124.77V114.19a30.2,30.2,0,0,1,6.39-18.81l.1-.13C50,90.4,54,87.73,58.92,84.5A89.89,89.89,0,0,1,75.34,76V121.3c0,12.34,8.13,23.5,20.1,26.49a26.94,26.94,0,0,0,14.5-.42c11.2-3.49,18.51-14.29,18.51-26v-17a3.5,3.5,0,0,1,3.58-3.5l55.7,1.18a7.38,7.38,0,0,1,7.22,7.38v18.42a9,9,0,0,1-9,9h-4l.5,24.58a10.18,10.18,0,0,1-10.18,10.39h-8.46a20,20,0,0,1-16.73,23.37H93.19a9.83,9.83,0,0,0-5.41,1.62L56.06,217.61a12.58,12.58,0,0,1-17.53-3.75l-31.21-49a14.81,14.81,0,0,1,5.08-20.78l24.22-14A6.1,6.1,0,0,0,39.66,124.77Z" transform="translate(-4.5 -29.82)"/><path class="cls-1" d="M117.51,122.74a15.28,15.28,0,0,1-5.14,11.68,14.91,14.91,0,0,1-24.66-11.69V81a24.89,24.89,0,0,1,9.18-19.53l.14-.12c.43-.34.86-.66,1.29-1a34.58,34.58,0,0,1,20.28-6.33h32.89a14.64,14.64,0,0,0,7.33-2L194,31.74a10.53,10.53,0,0,1,14.11,3.36l35.44,54.37a8.93,8.93,0,0,1-3.12,12.67L205.29,121.8V111.36a21.87,21.87,0,0,0-5.59-14.8l-.09-.1h0a22.42,22.42,0,0,0-16.18-7.17l-65.92-.73Z" transform="translate(-4.5 -29.82)"/></g></svg>