<?xml version="1.0" encoding="utf-8"?>
<!-- Generator: Adobe Illustrator 24.1.1, SVG Export Plug-In . SVG Version: 6.00 Build 0)  -->
<svg version="1.1" id="Capa_1" xmlns="http://www.w3.org/2000/svg" xmlns:xlink="http://www.w3.org/1999/xlink" x="0px" y="0px"
	 viewBox="0 0 480 480" style="enable-background:new 0 0 480 480;" xml:space="preserve">
<style type="text/css">
	.st0{fill:none;stroke:#FFFFFF;stroke-width:15;stroke-miterlimit:10;}
</style>
<g id="Postulaciones">
	<path class="st0" d="M80,239.6v-19.8c-0.1-12.8,4.1-25.2,12-35.3l0.2-0.2c7.2-9.1,14.7-14.1,23.9-20.2c9.7-6.4,20-11.7,30.8-15.9
		v84.9c0,23.1,15.2,44.1,37.7,49.7c9,2.2,18.4,2,27.2-0.8c21-6.5,34.7-26.8,34.7-48.7v-31.9c0-3.6,2.9-6.6,6.6-6.6
		c0.1,0,0.1,0,0.2,0l104.4,2.2c7.5,0.2,13.5,6.3,13.5,13.8v34.5c0,9.3-7.6,16.9-16.9,16.9l0,0h-7.5l0.9,46.1
		c0.2,10.5-8.2,19.3-18.7,19.5c-0.1,0-0.3,0-0.4,0h-15.9c3.7,20.4-9.8,39.9-30.2,43.6c-0.4,0.1-0.8,0.1-1.2,0.2h-101
		c-3.6,0-7.1,1.1-10.1,3l-59.5,39c-10.9,7.2-25.5,4.2-32.7-6.7c-0.1-0.1-0.1-0.2-0.2-0.3l-58.5-91.9c-8.2-12.9-4.4-30.1,8.5-38.3
		c0.3-0.2,0.7-0.4,1-0.6l45.4-26.2C77.8,247.5,80,243.7,80,239.6z"/>
	<path class="st0" d="M226,235.8c0.1,8.4-3.4,16.4-9.6,21.9c-11.7,10.1-29.3,8.8-39.4-2.8c-4.6-5.3-7-12.1-6.8-19.1v-78.2
		c-0.1-14.2,6.2-27.7,17.2-36.6l0.3-0.2c0.8-0.6,1.6-1.2,2.4-1.9c11.1-7.8,24.4-12,38-11.9h61.7c4.8,0,9.6-1.3,13.7-3.7l66-38
		c9.1-5.3,20.7-2.5,26.5,6.3l66.4,101.9c5.1,7.7,2.9,18.1-4.9,23.2c-0.3,0.2-0.6,0.4-1,0.6L390.5,234v-19.6
		c0.1-10.2-3.6-20.1-10.5-27.7l-0.2-0.2l0,0c-7.8-8.5-18.8-13.3-30.3-13.4L226,171.7L226,235.8z"/>
</g>
</svg>
