<svg id="Capa_1" data-name="Capa 1" xmlns="http://www.w3.org/2000/svg" viewBox="0 0 465.18 369.9"><defs><style>.cls-1{fill:#fff;stroke:#fff;stroke-miterlimit:10;stroke-width:15px;}</style></defs><g id="Postulaciones"><path class="cls-1" d="M80,239.6V219.8a56.46,56.46,0,0,1,12-35.3l.2-.2c7.2-9.1,14.7-14.1,23.9-20.2a163.29,163.29,0,0,1,30.8-15.9v84.9c0,23.1,15.2,44.1,37.7,49.7a50.27,50.27,0,0,0,27.2-.8c21-6.5,34.7-26.8,34.7-48.7V201.4a6.59,6.59,0,0,1,6.6-6.6h.2L357.7,197a13.83,13.83,0,0,1,13.5,13.8v34.5a16.94,16.94,0,0,1-16.9,16.9h-7.5l.9,46.1A19.17,19.17,0,0,1,329,327.8H312.7a37.48,37.48,0,0,1-30.2,43.6c-.4.1-.8.1-1.2.2h-101a19,19,0,0,0-10.1,3l-59.5,39A23.57,23.57,0,0,1,78,406.9c-.1-.1-.1-.2-.2-.3L19.3,314.7a27.79,27.79,0,0,1,8.5-38.3c.3-.2.7-.4,1-.6l45.4-26.2A11.59,11.59,0,0,0,80,239.6Z" transform="translate(-7.47 -55.12)"/><path class="cls-1" d="M226,235.8a28.79,28.79,0,0,1-9.6,21.9,27.91,27.91,0,0,1-46.2-21.9V157.6A46.63,46.63,0,0,1,187.4,121l.3-.2c.8-.6,1.6-1.2,2.4-1.9a65.34,65.34,0,0,1,38-11.9h61.7a27.32,27.32,0,0,0,13.7-3.7l66-38A19.79,19.79,0,0,1,396,71.6l66.4,101.9a16.71,16.71,0,0,1-4.9,23.2,8.79,8.79,0,0,1-1,.6l-66,36.7V214.4A40.57,40.57,0,0,0,380,186.7l-.2-.2h0a41.58,41.58,0,0,0-30.3-13.4L226,171.7Z" transform="translate(-7.47 -55.12)"/></g></svg>