<?xml version="1.0" encoding="utf-8"?>
<!-- Generator: Adobe Illustrator 24.1.1, SVG Export Plug-In . SVG Version: 6.00 Build 0)  -->
<svg version="1.1" id="Capa_1" xmlns="http://www.w3.org/2000/svg" xmlns:xlink="http://www.w3.org/1999/xlink" x="0px" y="0px"
	 viewBox="0 0 480 480" style="enable-background:new 0 0 480 480;" xml:space="preserve">
<style type="text/css">
	.st0{fill:none;stroke:#FFFFFF;stroke-width:15;stroke-miterlimit:10;}
	.st1{fill:none;stroke:#FFFFFF;stroke-width:15;stroke-linecap:round;stroke-miterlimit:10;}
</style>
<image style="display:none;overflow:visible;enable-background:new    ;" width="580" height="387" xlink:href="831B11AF.png"  transform="matrix(1 0 0 1 -104.835 -244)">
</image>
<polyline class="st0" points="204.3,387.2 40,387.2 40,83.2 187.1,83.2 261.6,158.9 261.6,166.8 261.6,223.8 "/>
<line class="st0" x1="261.6" y1="330.7" x2="261.6" y2="292.1"/>
<polyline class="st0" points="183.7,86.6 183.7,166.8 261.6,166.8 "/>
<line class="st1" x1="78.5" y1="209.5" x2="219.2" y2="209.5"/>
<line class="st1" x1="75.6" y1="262.2" x2="216.3" y2="262.2"/>
<line class="st1" x1="78.9" y1="314.9" x2="219.7" y2="314.9"/>
<ellipse class="st0" cx="297.7" cy="258" rx="49.3" ry="50.1"/>
<path class="st0" d="M371.1,422.8c18.8-7.3,25.9-30.6,14.4-47.4c-6.7-9.8-14.4-19.6-22-26.9c-6.9-6.8-14.9-12.4-23.7-16.6
	c-5.1-2.3-11-1.9-15.8,1.1c-4.2,2.4-8.7,4.2-13.3,5.3c-3.3,0.7-6.6,1-10,1c-2.6,0-5.2,0-7.8,0c-8.2,0-16.2-2.1-23.3-6.1
	c-4.8-3-10.7-3.4-15.8-1.1c-8.8,4.2-16.8,9.8-23.8,16.6c-7,6.8-13.5,14.1-19.4,21.8c-12.3,16-6.4,39.6,11.9,47.8
	C269.4,439.9,323,441.5,371.1,422.8L371.1,422.8z"/>
<polygon class="st0" points="440,108.2 349.5,172.1 349.5,135.4 269.1,135.4 269.1,108.2 269.1,80.9 349.5,80.9 349.5,44.3 "/>
</svg>
