<?xml version="1.0" encoding="utf-8"?>
<!-- Generator: Adobe Illustrator 24.1.1, SVG Export Plug-In . SVG Version: 6.00 Build 0)  -->
<svg version="1.1" id="Capa_1" xmlns="http://www.w3.org/2000/svg" xmlns:xlink="http://www.w3.org/1999/xlink" x="0px" y="0px"
	 viewBox="0 0 480 480" style="enable-background:new 0 0 480 480;" xml:space="preserve">
<style type="text/css">
	.st0{fill:none;stroke:#FFFFFF;stroke-width:15;stroke-miterlimit:10;}
</style>
<g id="Seguidos">
	<path class="st0" d="M85.7,331c2.6-33.6,22.9-63.3,53.2-78l-7.8-4.6c-8.3-4.9-17.7-7.4-27.3-7.4H59c-10.8-0.1-21.3,3.5-29.7,10.2
		c-0.7,0.5-1.3,1.1-2,1.7l-0.2,0.2c-7.8,7.5-12.2,17.9-12.1,28.7v36.3c0,7.1,5.8,12.9,12.9,12.9c0,0,0,0,0,0L85.7,331z"/>
	<circle class="st0" cx="82.8" cy="173.7" r="46.5"/>
	<path class="st0" d="M394.3,330.7c-2.6-33.6-22.9-63.2-53.2-78l7.8-4.6c8.3-4.9,17.8-7.4,27.4-7.4h44.7
		c10.8-0.1,21.3,3.5,29.7,10.2c0.7,0.5,1.3,1.1,2,1.7l0.2,0.2c7.8,7.5,12.1,17.9,12,28.7v36.2c0,7.1-5.8,12.8-12.9,12.8L394.3,330.7
		z"/>
	<circle class="st0" cx="397.2" cy="173.4" r="46.5"/>
	<circle class="st0" cx="240.4" cy="161.1" r="79.6"/>
	<path class="st0" d="M240.4,275.6c22.1-0.3,41.6-12,60.3-12c25.9,0.9,49.9,14.3,64.3,35.9c7.3,11,11.1,23.9,11,37.1v38.6
		c0.1,12.8-10.2,23.3-23,23.4H127.8c-12.8-0.1-23.1-10.6-23-23.4c0,0,0,0,0,0v-38.6c-0.1-13.2,3.7-26.1,11-37.1
		c14.4-21.6,38.3-34.9,64.3-35.9C198.9,263.6,218.3,275.3,240.4,275.6"/>
</g>
</svg>
