<svg id="Capa_1" data-name="Capa 1" xmlns="http://www.w3.org/2000/svg" viewBox="0 0 231 163.01"><defs><style>.cls-1{fill:none;stroke:#fff;stroke-miterlimit:10;}</style></defs><g id="Seguidos"><path class="cls-1" d="M46.12,171.53a48.52,48.52,0,0,1,27.17-39.86l-4-2.33a27.57,27.57,0,0,0-13.95-3.79H32.48a23.85,23.85,0,0,0-15.19,5.23c-.34.28-.68.58-1,.89l-.11.1A20,20,0,0,0,10,146.46V165a6.57,6.57,0,0,0,6.57,6.57Z" transform="translate(-9.5 -43.49)"/><circle class="cls-1" cx="35.16" cy="47.64" r="23.75"/><path class="cls-1" d="M203.88,171.35a48.52,48.52,0,0,0-27.17-39.85l4-2.34a27.66,27.66,0,0,1,14-3.78h22.87a23.79,23.79,0,0,1,15.19,5.23c.34.28.68.58,1,.89l.11.1A20,20,0,0,1,240,146.28v18.51a6.57,6.57,0,0,1-6.57,6.56Z" transform="translate(-9.5 -43.49)"/><circle class="cls-1" cx="195.84" cy="47.46" r="23.75"/><circle class="cls-1" cx="115.73" cy="41.19" r="40.69"/><path class="cls-1" d="M125.23,143.17c11.31-.15,21.25-6.12,30.84-6.12a41.24,41.24,0,0,1,32.84,18.34,33.74,33.74,0,0,1,5.63,18.94v19.73A11.85,11.85,0,0,1,182.79,206H67.67a11.85,11.85,0,0,1-11.75-11.95V174.33a33.74,33.74,0,0,1,5.63-18.94A41.28,41.28,0,0,1,94.4,137.05c9.59,0,19.53,6,30.83,6.12" transform="translate(-9.5 -43.49)"/></g></svg>